<svg width="20" height="20" viewBox="0 0 20 20" fill="none" xmlns="http://www.w3.org/2000/svg">
<path d="M17.3668 3.84148C16.9412 3.41565 16.4359 3.07785 15.8796 2.84738C15.3234 2.61691 14.7273 2.49829 14.1252 2.49829C13.5231 2.49829 12.9269 2.61691 12.3707 2.84738C11.8145 3.07785 11.3091 3.41565 10.8835 3.84148L10.0002 4.72481L9.11685 3.84148C8.2571 2.98174 7.09104 2.49874 5.87518 2.49874C4.65932 2.49874 3.49326 2.98174 2.63351 3.84148C1.77377 4.70122 1.29077 5.86728 1.29077 7.08315C1.29077 8.29901 1.77377 9.46507 2.63351 10.3248L3.51685 11.2081L10.0002 17.6915L16.4835 11.2081L17.3668 10.3248C17.7927 9.89918 18.1305 9.39382 18.3609 8.83761C18.5914 8.28139 18.71 7.68522 18.71 7.08315C18.71 6.48107 18.5914 5.8849 18.3609 5.32868C18.1305 4.77247 17.7927 4.26711 17.3668 3.84148V3.84148Z" stroke="#172849" stroke-width="0.833333" stroke-linecap="round" stroke-linejoin="round"/>
</svg>
