<svg width="80" height="68" viewBox="0 0 80 68" fill="none" xmlns="http://www.w3.org/2000/svg">
<g filter="url(#filter0_d_8628_28990)">
<path d="M10 16C10 12.6863 12.6863 10 16 10H70V58H16C12.6863 58 10 55.3137 10 52V16Z" fill="#EF613B"/>
</g>
<path d="M43.7632 31.7903H47.5132V28.0403" stroke="white" stroke-width="1.4" stroke-linecap="round" stroke-linejoin="round"/>
<path d="M35.1387 29.1386C35.7771 28.5002 36.535 27.9938 37.3691 27.6483C38.2032 27.3028 39.0972 27.125 40 27.125C40.9029 27.125 41.7969 27.3028 42.631 27.6483C43.4651 27.9938 44.223 28.5002 44.8614 29.1386L47.513 31.7903" stroke="white" stroke-width="1.4" stroke-linecap="round" stroke-linejoin="round"/>
<path d="M36.2368 36.2097H32.4868V39.9597" stroke="white" stroke-width="1.4" stroke-linecap="round" stroke-linejoin="round"/>
<path d="M44.8612 38.8614C44.2228 39.4998 43.4649 40.0062 42.6308 40.3517C41.7967 40.6972 40.9027 40.875 39.9998 40.875C39.097 40.875 38.203 40.6972 37.3689 40.3517C36.5348 40.0062 35.7769 39.4998 35.1385 38.8614L32.4868 36.2097" stroke="white" stroke-width="1.4" stroke-linecap="round" stroke-linejoin="round"/>
<defs>
<filter id="filter0_d_8628_28990" x="0" y="0" width="80" height="68" filterUnits="userSpaceOnUse" color-interpolation-filters="sRGB">
<feFlood flood-opacity="0" result="BackgroundImageFix"/>
<feColorMatrix in="SourceAlpha" type="matrix" values="0 0 0 0 0 0 0 0 0 0 0 0 0 0 0 0 0 0 127 0" result="hardAlpha"/>
<feOffset/>
<feGaussianBlur stdDeviation="5"/>
<feComposite in2="hardAlpha" operator="out"/>
<feColorMatrix type="matrix" values="0 0 0 0 0 0 0 0 0 0 0 0 0 0 0 0 0 0 0.15 0"/>
<feBlend mode="normal" in2="BackgroundImageFix" result="effect1_dropShadow_8628_28990"/>
<feBlend mode="normal" in="SourceGraphic" in2="effect1_dropShadow_8628_28990" result="shape"/>
</filter>
</defs>
</svg>
