<svg width="32" height="32" viewBox="0 0 32 32" fill="none" xmlns="http://www.w3.org/2000/svg">
<circle cx="16" cy="16" r="15.5" fill="#F7F7F8" stroke="#E3E5E8"/>
<path d="M15.6953 18.7969C16.2031 18.7969 16.4375 18.4688 16.4766 17.9688C16.5156 17.2031 16.7812 16.8047 17.7891 16.2109C18.8203 15.5938 19.4297 14.7656 19.4297 13.5547C19.4297 11.8281 18.0156 10.6328 15.9766 10.6328C14.4141 10.6328 13.2266 11.2891 12.75 12.3672C12.6094 12.6719 12.5391 12.9453 12.5391 13.2812C12.5391 13.7578 12.8125 14.0469 13.2969 14.0469C13.6875 14.0469 13.9297 13.875 14.0859 13.3906C14.3359 12.5391 14.9609 12.0703 15.9062 12.0703C16.9453 12.0703 17.6562 12.7031 17.6562 13.625C17.6562 14.3906 17.3203 14.8594 16.375 15.4297C15.3594 16.0391 14.875 16.7031 14.875 17.7031V17.8828C14.875 18.3984 15.1484 18.7969 15.6953 18.7969ZM15.6953 22.1172C16.2812 22.1172 16.7266 21.6797 16.7266 21.1094C16.7266 20.5391 16.2812 20.1016 15.6953 20.1016C15.125 20.1016 14.6719 20.5391 14.6719 21.1094C14.6719 21.6797 15.125 22.1172 15.6953 22.1172Z" fill="#EF613B"/>
</svg>
