<svg width="32" height="32" viewBox="0 0 32 32" fill="none" xmlns="http://www.w3.org/2000/svg">
<circle cx="16" cy="16" r="16" fill="#E3E5E8"/>
<path d="M15.2857 10.5C15.2857 9.77344 16 9.96094 16 9C16.2679 9 16.7143 9.69141 16.7143 10.3125C16.7143 10.9336 16.3962 11.25 16 11.25C15.6038 11.25 15.2857 10.916 15.2857 10.5ZM18.8571 11.25C19.2533 11.25 19.5714 10.9336 19.5714 10.3125C19.5714 9.69141 19.125 9 18.8571 9C18.8571 9.96094 18.1429 9.77344 18.1429 10.5C18.1429 10.916 18.4609 11.25 18.8571 11.25ZM21 15.375V21H11V15.375C11 14.7539 11.4799 14.25 12.0714 14.25H12.6071V11.625H13.6786V14.25H15.4643V11.625H16.5357V14.25H18.3214V11.625H19.3929V14.25H19.9286C20.5201 14.25 21 14.7539 21 15.375ZM12.0714 15.5156V16.8476C12.2579 17.0117 12.4123 17.1562 12.6685 17.1562C13.235 17.1562 13.3411 16.4062 14.3371 16.4062C15.3186 16.4062 15.4476 17.1562 16 17.1562C16.5712 17.1562 16.671 16.4062 17.6685 16.4062C18.6612 16.4062 18.7696 17.1562 19.3371 17.1562C19.5883 17.1562 19.7419 17.0114 19.9286 16.8472V15.5158C19.9286 15.4785 19.9145 15.4427 19.8893 15.4164C19.8642 15.39 19.8302 15.3752 19.7946 15.3752L12.2054 15.375C12.1698 15.375 12.1358 15.3898 12.1107 15.4162C12.0855 15.4426 12.0714 15.4783 12.0714 15.5156ZM19.9286 19.875V17.9796C19.7723 18.0479 19.5817 18.0938 19.3371 18.0938C18.3428 18.0938 18.2346 17.3438 17.6685 17.3438C17.1073 17.3438 16.9915 18.0938 16 18.0938C15.0184 18.0938 14.8894 17.3438 14.3371 17.3438C13.7659 17.3438 13.666 18.0938 12.6685 18.0938C12.4211 18.0938 12.2288 18.0475 12.0714 17.9786V19.875H19.9286ZM13.1429 11.25C13.5391 11.25 13.8571 10.9336 13.8571 10.3125C13.8571 9.69141 13.4107 9 13.1429 9C13.1429 9.96094 12.4286 9.77344 12.4286 10.5C12.4286 10.916 12.7467 11.25 13.1429 11.25Z" fill="#172849"/>
</svg>
