<svg width="32" height="32" viewBox="0 0 32 32" fill="none" xmlns="http://www.w3.org/2000/svg">
<circle cx="16" cy="16" r="16" fill="#E3E5E8"/>
<g clip-path="url(#clip0_8653_23773)">
<path d="M14.841 19.4284H17.1576C17.233 18.7416 17.5833 18.1747 18.1519 17.5558C18.2164 17.4861 18.6273 17.0604 18.6759 16.9998C19.0794 16.4956 19.3324 15.8877 19.4056 15.246C19.4789 14.6043 19.3693 13.955 19.0897 13.3728C18.8101 12.7907 18.3717 12.2993 17.8251 11.9554C17.2784 11.6114 16.6457 11.4289 15.9999 11.4287C15.3541 11.4286 14.7213 11.6109 14.1745 11.9546C13.6277 12.2983 13.1891 12.7895 12.9093 13.3715C12.6294 13.9536 12.5196 14.6028 12.5925 15.2445C12.6655 15.8863 12.9182 16.4943 13.3216 16.9987C13.3707 17.0598 13.7827 17.4861 13.8461 17.5553C14.4153 18.1747 14.7656 18.7416 14.841 19.4284ZM17.1421 20.5713H14.8564V21.1427H17.1421V20.5713ZM12.4301 17.7141C11.892 17.0417 11.5547 16.231 11.4571 15.3753C11.3596 14.5195 11.5058 13.6537 11.8789 12.8774C12.2519 12.1011 12.8367 11.4461 13.5658 10.9876C14.2949 10.5292 15.1386 10.286 15.9999 10.2861C16.8612 10.2863 17.7049 10.5297 18.4338 10.9884C19.1628 11.4471 19.7473 12.1023 20.1201 12.8787C20.4929 13.6551 20.6388 14.521 20.541 15.3767C20.4432 16.2324 20.1057 17.043 19.5673 17.7153C19.213 18.1564 18.285 18.857 18.285 19.7141V21.1427C18.285 21.4458 18.1646 21.7365 17.9503 21.9508C17.7359 22.1652 17.4452 22.2856 17.1421 22.2856H14.8564C14.5533 22.2856 14.2626 22.1652 14.0483 21.9508C13.834 21.7365 13.7136 21.4458 13.7136 21.1427V19.7141C13.7136 18.857 12.785 18.1564 12.4301 17.7141ZM16.5707 14.8593H17.9993L15.4279 18.2878V16.0021H13.9993L16.5707 12.5713V14.8598V14.8593Z" fill="#172849"/>
</g>
<defs>
<clipPath id="clip0_8653_23773">
<rect width="13.7143" height="13.7143" fill="white" transform="translate(9.14258 9.14282)"/>
</clipPath>
</defs>
</svg>
