<svg width="32" height="32" viewBox="0 0 32 32" fill="none" xmlns="http://www.w3.org/2000/svg">
<circle cx="16" cy="16" r="16" fill="#E3E5E8"/>
<path d="M13.9997 9V11.3333H17.9997V9H19.333V11.3333H20.9997C21.1765 11.3333 21.3461 11.4036 21.4711 11.5286C21.5961 11.6536 21.6663 11.8232 21.6663 12V21.3333C21.6663 21.5101 21.5961 21.6797 21.4711 21.8047C21.3461 21.9297 21.1765 22 20.9997 22H10.9997C10.8229 22 10.6533 21.9297 10.5283 21.8047C10.4032 21.6797 10.333 21.5101 10.333 21.3333V12C10.333 11.8232 10.4032 11.6536 10.5283 11.5286C10.6533 11.4036 10.8229 11.3333 10.9997 11.3333H12.6663V9H13.9997ZM20.333 12.8334H11.6663V20.6666H20.333V12.8334Z" fill="#172849"/>
<path d="M16 14L16.9522 15.6894L18.8532 16.0729L17.5407 17.5006L17.7634 19.4271L16 18.62L14.2366 19.4271L14.4593 17.5006L13.1468 16.0729L15.0478 15.6894L16 14Z" fill="#172849"/>
</svg>
