<svg width="32" height="32" viewBox="0 0 32 32" fill="none" xmlns="http://www.w3.org/2000/svg">
<circle cx="16" cy="16" r="16" fill="#E3E5E8"/>
<path d="M20.6663 22.6668H11.333C10.8026 22.6668 10.2939 22.4561 9.91879 22.081C9.54372 21.706 9.33301 21.1973 9.33301 20.6668V10.0002C9.33301 9.82335 9.40325 9.65378 9.52827 9.52876C9.65329 9.40373 9.82286 9.3335 9.99967 9.3335H19.333C19.5098 9.3335 19.6794 9.40373 19.8044 9.52876C19.9294 9.65378 19.9997 9.82335 19.9997 10.0002V18.0002H22.6663V20.6668C22.6663 21.1973 22.4556 21.706 22.0806 22.081C21.7055 22.4561 21.1968 22.6668 20.6663 22.6668ZM19.9997 19.3335V20.6668C19.9997 20.8436 20.0699 21.0132 20.1949 21.1382C20.32 21.2633 20.4895 21.3335 20.6663 21.3335C20.8432 21.3335 21.0127 21.2633 21.1377 21.1382C21.2628 21.0132 21.333 20.8436 21.333 20.6668V19.3335H19.9997ZM18.6663 21.3335V10.6668H10.6663V20.6668C10.6663 20.8436 10.7366 21.0132 10.8616 21.1382C10.9866 21.2633 11.1562 21.3335 11.333 21.3335H18.6663ZM11.9997 12.6668H17.333V14.0002H11.9997V12.6668ZM11.9997 15.3335H17.333V16.6668H11.9997V15.3335ZM11.9997 18.0002H15.333V19.3335H11.9997V18.0002Z" fill="#172849"/>
</svg>
